<?xml version="1.0" encoding="UTF-8"?>
<svg id="Layer_1" xmlns="http://www.w3.org/2000/svg" version="1.1" viewBox="0 0 800 800">
  <!-- Generator: Adobe Illustrator 29.6.1, SVG Export Plug-In . SVG Version: 2.1.1 Build 9)  -->
  <defs>
    <style>
      .st0 {
        fill: #fff;
      }
    </style>
  </defs>
  <path class="st0" d="M661.52,386.61c0,23.95-19.42,43.37-43.37,43.37h-174.78v174.82c-1.06,23.93-21.31,42.47-45.24,41.42-22.45-.99-40.43-18.97-41.42-41.42v-174.82h-174.91c-23.94.75-43.95-18.06-44.7-42-.75-23.94,18.06-43.95,42-44.7.9-.03,1.8-.03,2.7,0h174.86v-174.82c1.06-23.93,21.31-42.47,45.24-41.42,22.45.99,40.43,18.97,41.42,41.42v174.82h174.86c23.94.02,43.33,19.43,43.33,43.37v-.04Z"/>
</svg>