<?xml version="1.0" ?><!-- Uploaded to: SVG Repo, www.svgrepo.com, Generator: SVG Repo Mixer Tools -->
<svg width="800px" height="800px" viewBox="-8 0 60 60" xmlns="http://www.w3.org/2000/svg"><defs><style>
      .cls-1 {
        fill: #8b695c;
        fill-rule: evenodd;
      }
    </style></defs><path class="cls-1" d="M222,150a4,4,0,0,1-4-4V94a4,4,0,0,1,4-4h36l4,4H224a2,2,0,0,0-2,2v4a2,2,0,0,0,2,2,2,2,0,0,1,2,2v11.086a1,1,0,0,0,1.707.707l2.879-2.879a2,2,0,0,1,2.828,0l2.879,2.879a1,1,0,0,0,1.707-.707V104a2,2,0,0,1,2-2h22v48H222Z" id="book" transform="translate(-218 -90)"/></svg>