<?xml version="1.0" encoding="UTF-8"?>
<svg id="Layer_1" xmlns="http://www.w3.org/2000/svg" version="1.1" viewBox="0 0 800 800">
  <!-- Generator: Adobe Illustrator 29.6.1, SVG Export Plug-In . SVG Version: 2.1.1 Build 9)  -->
  <defs>
    <style>
      .st0 {
        fill: #fff;
      }
    </style>
  </defs>
  <path class="st0" d="M626.65,574.48c16.26,17.59,15.18,45.03-2.4,61.29-16.61,15.36-42.24,15.37-58.86.02l-165.39-165.39-165.39,165.39c-16.26,17.59-43.7,18.66-61.29,2.4-17.59-16.26-18.66-43.7-2.4-61.29.78-.84,1.59-1.65,2.43-2.42l165.39-165.39-165.39-165.31c-17.6-16.25-18.69-43.68-2.45-61.28,16.25-17.6,43.68-18.69,61.28-2.45.84.78,1.65,1.59,2.43,2.43l165.39,165.35,165.39-165.39c17.6-16.25,45.04-15.15,61.28,2.45,15.35,16.62,15.34,42.25-.02,58.86l-165.39,165.35,165.39,165.39Z"/>
</svg>